<svg width="16" height="16" viewBox="0 0 16 16" fill="none" xmlns="http://www.w3.org/2000/svg">
<path d="M14.5683 2.85718H13.7176C13.7167 2.85718 13.7159 2.85752 13.7153 2.85812C13.7147 2.85872 13.7144 2.85954 13.7144 2.86039V13.7143C13.7144 14.0174 13.8348 14.3081 14.0491 14.5224C14.2634 14.7368 14.5541 14.8572 14.8572 14.8572C15.1603 14.8572 15.451 14.7368 15.6653 14.5224C15.8797 14.3081 16.0001 14.0174 16.0001 13.7143V4.28896C16.0001 3.90923 15.8492 3.54505 15.5807 3.27654C15.3122 3.00803 14.948 2.85718 14.5683 2.85718Z" fill="#292961"/>
<path d="M12.5714 13.7143V1.42857C12.5714 1.24097 12.5345 1.0552 12.4627 0.881881C12.3909 0.708558 12.2857 0.551074 12.153 0.418419C12.0204 0.285764 11.8629 0.180536 11.6895 0.108744C11.5162 0.0369511 11.3305 0 11.1429 0H1.42857C1.04969 0 0.686328 0.15051 0.418419 0.418419C0.15051 0.686328 0 1.04969 0 1.42857V14C0 14.5304 0.210714 15.0391 0.585786 15.4142C0.960859 15.7893 1.46957 16 2 16H14.2446C14.25 16 14.2554 15.999 14.2604 15.997C14.2654 15.9949 14.27 15.9919 14.2738 15.9881C14.2776 15.9843 14.2806 15.9797 14.2827 15.9747C14.2847 15.9697 14.2858 15.9643 14.2857 15.9589C14.2857 15.9499 14.2827 15.9412 14.2772 15.9341C14.2717 15.927 14.264 15.9219 14.2554 15.9196C13.772 15.787 13.3455 15.4995 13.0413 15.1011C12.7371 14.7027 12.572 14.2155 12.5714 13.7143ZM2.28571 3.42857C2.28571 3.27702 2.34592 3.13167 2.45308 3.02451C2.56025 2.91735 2.70559 2.85714 2.85714 2.85714H5.14286C5.29441 2.85714 5.43975 2.91735 5.54692 3.02451C5.65408 3.13167 5.71429 3.27702 5.71429 3.42857V5.71429C5.71429 5.86584 5.65408 6.01118 5.54692 6.11835C5.43975 6.22551 5.29441 6.28571 5.14286 6.28571H2.85714C2.70559 6.28571 2.56025 6.22551 2.45308 6.11835C2.34592 6.01118 2.28571 5.86584 2.28571 5.71429V3.42857ZM9.71428 13.1429H2.87321C2.56571 13.1429 2.30179 12.9064 2.28643 12.5989C2.28271 12.5217 2.29471 12.4445 2.32171 12.372C2.34871 12.2995 2.39015 12.2332 2.44351 12.1772C2.49687 12.1212 2.56104 12.0766 2.63214 12.0462C2.70324 12.0157 2.77979 12 2.85714 12H9.69821C10.0057 12 10.2696 12.2364 10.285 12.5439C10.2887 12.6212 10.2767 12.6984 10.2497 12.7709C10.2227 12.8434 10.1813 12.9096 10.1279 12.9656C10.0746 13.0216 10.0104 13.0662 9.93928 13.0967C9.86818 13.1271 9.79164 13.1428 9.71428 13.1429ZM9.71428 10.8571H2.87321C2.56571 10.8571 2.30179 10.6207 2.28643 10.3132C2.28271 10.236 2.29471 10.1587 2.32171 10.0863C2.34871 10.0138 2.39015 9.94751 2.44351 9.89151C2.49687 9.83551 2.56104 9.79093 2.63214 9.76047C2.70324 9.73 2.77979 9.71429 2.85714 9.71428H9.69821C10.0057 9.71428 10.2696 9.95071 10.285 10.2582C10.2887 10.3355 10.2767 10.4127 10.2497 10.4852C10.2227 10.5577 10.1813 10.6239 10.1279 10.6799C10.0746 10.7359 10.0104 10.7805 9.93928 10.811C9.86818 10.8414 9.79164 10.8571 9.71428 10.8571ZM9.71428 8.57143H2.87321C2.56571 8.57143 2.30179 8.335 2.28643 8.0275C2.28271 7.95024 2.29471 7.87302 2.32171 7.80054C2.34871 7.72805 2.39015 7.6618 2.44351 7.6058C2.49687 7.5498 2.56104 7.50522 2.63214 7.47475C2.70324 7.44429 2.77979 7.42858 2.85714 7.42857H9.69821C10.0057 7.42857 10.2696 7.665 10.285 7.9725C10.2887 8.04976 10.2767 8.12698 10.2497 8.19946C10.2227 8.27195 10.1813 8.3382 10.1279 8.3942C10.0746 8.4502 10.0104 8.49478 9.93928 8.52524C9.86818 8.55571 9.79164 8.57142 9.71428 8.57143ZM9.71428 6.28571H7.44464C7.13714 6.28571 6.87321 6.04929 6.85786 5.74179C6.85413 5.66452 6.86614 5.58731 6.89314 5.51482C6.92014 5.44234 6.96157 5.37609 7.01494 5.32009C7.0683 5.26409 7.13247 5.2195 7.20357 5.18904C7.27467 5.15858 7.35122 5.14286 7.42857 5.14286H9.69821C10.0057 5.14286 10.2696 5.37929 10.285 5.68679C10.2887 5.76405 10.2767 5.84126 10.2497 5.91375C10.2227 5.98624 10.1813 6.05249 10.1279 6.10848C10.0746 6.16448 10.0104 6.20907 9.93928 6.23953C9.86818 6.27 9.79164 6.28571 9.71428 6.28571ZM9.71428 4H7.44464C7.13714 4 6.87321 3.76357 6.85786 3.45607C6.85413 3.37881 6.86614 3.30159 6.89314 3.22911C6.92014 3.15662 6.96157 3.09037 7.01494 3.03437C7.0683 2.97837 7.13247 2.93379 7.20357 2.90333C7.27467 2.87286 7.35122 2.85715 7.42857 2.85714H9.69821C10.0057 2.85714 10.2696 3.09357 10.285 3.40107C10.2887 3.47833 10.2767 3.55555 10.2497 3.62803C10.2227 3.70052 10.1813 3.76677 10.1279 3.82277C10.0746 3.87877 10.0104 3.92335 9.93928 3.95382C9.86818 3.98428 9.79164 3.99999 9.71428 4Z" fill="#292961"/>
</svg>
