<svg width="29" height="36" viewBox="0 0 29 36" fill="none" xmlns="http://www.w3.org/2000/svg">
<path d="M18 0H3.6C1.62 0 0 1.62 0 3.6V32.4C0 34.38 1.62 36 3.6 36H25.2C27.18 36 28.8 34.38 28.8 32.4V10.8L18 0ZM14.4 14.4C16.38 14.4 18 16.02 18 18C18 19.98 16.38 21.6 14.4 21.6C12.42 21.6 10.8 19.98 10.8 18C10.8 16.02 12.42 14.4 14.4 14.4ZM21.6 28.8H7.2V27.774C7.2 26.316 8.064 25.02 9.396 24.444C10.9743 23.7552 12.6779 23.3996 14.4 23.3996C16.1221 23.3996 17.8257 23.7552 19.404 24.444C20.0561 24.7227 20.6119 25.187 21.0024 25.779C21.3928 26.3711 21.6006 27.0648 21.6 27.774V28.8Z" fill="white"/>
</svg>
