<svg width="16" height="17" viewBox="0 0 16 17" fill="none" xmlns="http://www.w3.org/2000/svg">
<path d="M14.8667 16.6667H1.13333C0.466667 16.6667 0 16.1333 0 15.5333V1.13333C0 0.533333 0.466667 0 1.13333 0H14.9333C15.5333 0 16 0.533333 16 1.13333V15.4667C16 16.1333 15.4667 16.6667 14.8667 16.6667Z" fill="#282A61"/>
<path d="M12.7333 8.33342L14 4.00008H3.4V3.13341C3.4 2.86675 3.26667 2.66675 3.06667 2.66675H2.33333C2.13333 2.66675 2 2.86675 2 3.13341V4.00008V6.13341V10.5334V12.6667V16.6667H3.4V12.6667H14L12.7333 8.33342ZM4.33333 10.5334H3.4V6.13341H4.33333V10.5334Z" fill="white"/>
</svg>
