<svg width="16" height="16" viewBox="0 0 16 16" fill="none" xmlns="http://www.w3.org/2000/svg">
<path d="M0 13.9067L6.76265 7.14403L8.85349 9.23487L2.09084 15.9975L0 13.9067Z" fill="#292961"/>
<path d="M10.1019 3.80664L7.43213 6.47678L9.52328 8.56793L12.1934 5.89814L10.1019 3.80664Z" fill="#292961"/>
<path d="M4.69583 6.49811L5.84455 4.39777L7.94489 3.24906L5.84455 2.10034L4.69583 0L3.54712 2.10034L1.44678 3.24906L3.54712 4.39777L4.69583 6.49811Z" fill="#292961"/>
<path d="M13.2544 5.49127L14.2252 3.71634L16.0001 2.74565L14.2252 1.77493L13.2544 0L12.2837 1.77493L10.5088 2.74565L12.2837 3.71634L13.2544 5.49127Z" fill="#292961"/>
<path d="M13.2544 7.29987L12.2837 9.0748L10.5088 10.0455L12.2837 11.0162L13.2544 12.7911L14.2252 11.0162L16.0001 10.0455L14.2252 9.0748L13.2544 7.29987Z" fill="#292961"/>
</svg>
