<svg width="16" height="16" viewBox="0 0 16 16" fill="none" xmlns="http://www.w3.org/2000/svg">
<path d="M12 14.4H1.6V4C1.6 3.56 1.24 3.2 0.8 3.2C0.36 3.2 0 3.56 0 4V14.4C0 15.28 0.72 16 1.6 16H12C12.44 16 12.8 15.64 12.8 15.2C12.8 14.76 12.44 14.4 12 14.4ZM14.4 0H4.8C3.92 0 3.2 0.72 3.2 1.6V11.2C3.2 12.08 3.92 12.8 4.8 12.8H14.4C15.28 12.8 16 12.08 16 11.2V1.6C16 0.72 15.28 0 14.4 0ZM9.6 2.4C10.928 2.4 12 3.472 12 4.8C12 6.128 10.928 7.2 9.6 7.2C8.272 7.2 7.2 6.128 7.2 4.8C7.2 3.472 8.272 2.4 9.6 2.4ZM4.608 11.2C5.784 9.736 7.576 8.8 9.6 8.8C11.624 8.8 13.416 9.736 14.592 11.2H4.608Z" fill="#292961"/>
</svg>
