<svg width="101" height="40" viewBox="0 0 101 40" fill="none" xmlns="http://www.w3.org/2000/svg">
<path d="M0 0.0832897H0.374804C4.68505 0.0832897 9.18269 -0.104112 13.4929 0.0832897C20.989 0.458093 26.4237 4.39353 29.6095 11.14C29.6095 11.3274 29.7969 11.5148 29.7969 11.7022C29.6095 11.7022 29.4221 11.7022 29.2347 11.7022C27.1733 11.7022 25.1119 11.7022 23.0504 11.7022C22.6756 11.7022 22.4882 11.7022 22.3008 11.3274C19.8646 7.95417 16.4914 6.26755 12.3685 6.26755C10.4945 6.26755 8.62049 6.26755 6.74647 6.26755C6.55907 6.26755 6.37166 6.26755 6.37166 6.82976C6.37166 11.7022 6.37166 16.3873 6.37166 21.2597C6.37166 21.8219 6.55906 21.8219 6.93387 21.8219C13.4929 21.8219 19.8646 21.8219 26.4237 22.0093C28.1103 22.0093 29.9843 22.0093 31.8583 22.0093C31.6709 22.1967 31.6709 22.3841 31.6709 22.3841C30.3591 24.0707 29.0473 25.7573 27.7355 27.6314C27.5481 27.8188 27.3607 28.0062 27.1733 28.0062C18.3654 28.0062 9.37009 28.0062 0.562206 28.0062C0.187402 28.0062 0 27.8188 0 27.444C0 18.4487 0 9.64079 0 0.645495C0 0.270691 0 0.0832897 0 0.0832897Z" fill="#DE2227"/>
<path d="M9.18286 13.7638C9.37026 13.7638 9.55766 13.7638 9.74507 13.7638C19.8648 13.7638 30.1719 13.7638 40.2916 13.7638C40.6664 13.7638 40.8538 13.9512 41.0412 14.326C41.2286 15.6378 41.6034 17.137 41.6034 18.4488C41.7908 21.6347 41.7908 24.8205 40.6664 27.8189C37.8553 34.7528 32.7955 38.6882 25.4868 39.8127C24.7372 40.0001 23.9876 40.0001 23.238 40.0001C19.3026 40.0001 15.1797 40.0001 11.2443 40.0001C11.0569 40.0001 10.8695 40.0001 10.6821 40.0001C10.6821 36.4394 10.6821 33.0662 10.6821 29.693C12.7435 29.693 14.9923 29.693 17.0537 29.693C17.0537 31.0048 17.0537 32.3166 17.0537 33.6284H17.4285C19.8648 33.6284 22.1136 33.6284 24.5498 33.6284C26.4238 33.6284 28.2979 33.0662 29.7971 32.1292C32.2333 30.8174 33.9199 28.7559 34.4821 26.1323C35.0443 24.0709 35.0443 22.1969 35.0443 20.1355C35.0443 19.9481 35.0443 19.7607 34.6695 19.7607H34.2947C27.3608 19.7607 20.427 19.7607 13.4931 19.7607C13.1183 19.7607 12.9309 19.5733 12.5561 19.1984C11.6191 17.5118 10.4947 15.8252 9.37026 14.1386C9.37026 13.9512 9.18286 13.9512 9.18286 13.7638Z" fill="#272827"/>
<path d="M55.6584 19.1984C55.6584 18.8236 55.8458 18.2614 55.8458 17.8866C56.2206 16.2 56.5954 14.5134 56.7828 12.8268C57.1576 12.0772 57.1576 12.0772 57.9072 12.0772C58.4694 12.0772 58.8443 12.0772 59.4065 12.0772C59.2191 12.8268 59.2191 13.389 59.0317 13.9512C58.4694 16.0126 57.9072 17.8866 57.345 19.9481C57.1576 20.3229 57.1576 20.8851 56.9702 21.4473C56.9702 21.8221 56.7828 22.0095 56.408 21.8221C55.6584 21.8221 55.0962 21.8221 54.3466 21.8221C53.7844 19.5732 53.2222 17.3244 52.4726 14.8882C52.2852 15.4504 52.0978 16.0126 52.0978 16.3874C51.723 18.074 51.1608 19.7606 50.786 21.2599C50.786 21.6347 50.5986 21.8221 50.2238 21.6347C49.6616 21.6347 49.0994 21.6347 48.3497 21.6347L47.9749 21.2599C47.4127 19.011 46.8505 16.5748 46.1009 14.326C45.9135 13.5764 45.7261 12.6394 45.3513 11.8898C46.2883 11.8898 47.0379 11.8898 47.7875 11.8898C48.3497 14.1386 48.7245 16.5748 49.2868 18.8236H49.6616C50.2238 16.5748 50.9734 14.1386 51.5356 11.8898C52.2852 11.8898 53.0348 11.8898 53.7844 11.8898L54.1592 12.2646C54.3466 13.2016 54.534 14.1386 54.9088 15.0756C54.9088 16.5748 55.2836 17.8866 55.6584 19.1984Z" fill="black"/>
<path d="M86.5796 22.0091C85.83 22.0091 85.2678 22.0091 84.5181 22.0091C84.5181 21.8217 84.5181 21.6343 84.5181 21.4469C84.5181 20.3225 84.5181 19.3855 84.5181 18.2611C84.5181 18.0737 84.5181 17.6989 84.5181 17.5115C84.3307 16.9493 84.1433 16.5745 83.5811 16.5745C83.0189 16.5745 82.6441 16.9493 82.4567 17.5115C82.4567 17.8863 82.2693 18.0737 82.2693 18.4485C82.2693 19.5729 82.2693 20.8847 82.2693 22.0091C81.5197 22.0091 80.7701 22.0091 80.0205 22.0091V21.6343C80.0205 18.4485 80.0205 15.4501 80.0205 12.2642C80.0205 11.8894 80.2079 11.702 80.5827 11.702C81.1449 11.702 81.7071 11.702 82.2693 11.702C82.2693 13.0138 82.2693 14.5131 82.2693 15.8249C82.6441 15.4501 83.0189 15.2627 83.2063 15.0753C84.5182 14.5131 86.5796 14.7005 86.767 16.9493C86.767 18.4485 86.767 20.1351 86.767 21.6343L86.5796 22.0091Z" fill="black"/>
<path d="M66.1528 22.0093C65.4032 22.0093 64.841 22.0093 64.0914 22.0093C64.0914 21.8219 64.0914 21.4471 64.0914 21.0722L63.904 21.2596C63.1544 22.1967 61.8426 22.3841 60.9056 21.8219C60.5308 21.6345 60.156 21.2596 60.156 21.0722C59.5938 19.3856 60.156 18.0738 62.03 17.699C62.7796 17.5116 63.5292 17.5116 64.2788 17.3242C64.2788 16.5746 64.0914 16.3872 63.3418 16.1998C62.5922 16.1998 61.8426 16.1998 61.093 16.762L60.7182 16.9494C60.7182 16.3872 60.7182 16.0124 60.7182 15.4502L60.9056 15.2628C62.2174 14.888 63.5292 14.5132 64.841 15.0754C65.9654 15.4502 66.3403 16.3872 66.3403 17.3242C66.1529 18.8234 66.1528 20.3226 66.1528 22.0093ZM63.904 18.636C63.3418 18.636 62.967 18.8234 62.4048 18.8234C62.03 18.8234 61.6552 19.3856 61.6552 19.7604C61.6552 20.1352 62.03 20.51 62.5922 20.51C63.5292 20.6974 64.2788 19.7604 63.904 18.636Z" fill="black"/>
<path d="M89.9529 19.0109C89.9529 19.7605 90.3277 20.3227 91.2647 20.5101C92.0143 20.6975 92.9513 20.5101 93.7009 20.1353L94.0757 19.9479C94.0757 20.5101 94.0757 20.8849 94.0757 21.2597L93.8883 21.4471C92.3891 22.0093 90.8899 22.1967 89.3907 21.2597C88.2663 20.6975 88.0789 19.5731 88.0789 18.4487C88.0789 16.5747 88.8285 15.2629 90.3277 14.7007C92.5765 13.9511 94.4505 15.0755 94.6379 17.5117C94.6379 18.8235 94.6379 18.8235 93.5135 18.8235C92.5765 18.8235 91.6395 18.8235 90.7025 18.8235C90.3277 19.0109 90.1403 19.0109 89.9529 19.0109ZM89.9529 17.6991C90.7025 17.6991 91.4521 17.6991 92.2017 17.6991L92.3891 17.5117C92.5765 17.1369 92.0143 16.3873 91.6395 16.1999C90.8899 16.0125 89.9529 16.7621 89.9529 17.6991Z" fill="#DE2227"/>
<path d="M68.2144 14.7007C68.2144 14.5133 68.2144 14.1385 68.2144 13.7637C68.2144 13.5763 68.2144 13.3889 68.5892 13.3889C69.1514 13.2015 69.7136 13.0141 70.4632 12.8267C70.4632 13.3889 70.4632 13.9511 70.4632 14.5133C70.4632 14.8881 70.6506 14.8881 70.838 14.8881C71.9624 14.8881 71.9624 14.8881 71.9624 16.0125C71.9624 16.3873 71.775 16.5747 71.4002 16.5747C71.0254 16.5747 70.838 16.5747 70.4632 16.5747C70.4632 17.6991 70.4632 18.6361 70.4632 19.7605C70.4632 20.3227 70.838 20.5101 71.4002 20.5101C71.5876 20.5101 71.5876 20.5101 71.9624 20.3227C71.9624 20.8849 71.9624 21.2597 71.9624 21.6345L71.5876 22.0094C70.838 22.0094 70.0884 22.1968 69.5262 22.0094C68.5892 21.822 68.2144 20.8849 68.2144 19.9479C68.2144 19.0109 68.2144 18.0739 68.2144 17.1369V16.5747C67.8396 16.5747 67.2774 16.5747 67.09 16.3873C66.9026 16.1999 67.09 15.6377 66.9026 15.2629C67.09 14.5133 67.8396 15.0755 68.2144 14.7007Z" fill="black"/>
<path d="M78.3341 16.7621C77.2096 16.1999 76.0852 16.0125 75.1482 17.1369C74.586 17.6991 74.586 19.0109 75.1482 19.5731C76.0852 20.6975 77.2096 20.3227 78.3341 19.9479C78.3341 20.5101 78.3341 21.0723 78.3341 21.6345L78.1467 21.8219C76.8348 22.3841 74.3986 22.3841 73.2742 20.8849C72.5246 19.7605 72.3372 18.4487 72.8994 17.1369C73.4616 15.8251 74.3986 15.0755 75.8978 14.8881C76.46 14.8881 77.2096 14.8881 77.7718 14.8881C78.1467 14.8881 78.5215 15.0755 78.5215 15.6377C78.3341 16.0125 78.3341 16.3873 78.3341 16.7621Z" fill="black"/>
<path d="M100.447 16.7621C98.7606 16.3873 98.011 16.9495 98.011 18.8235C98.011 19.7605 98.011 20.6975 98.011 21.4472C98.011 21.822 97.8236 22.0094 97.4488 22.0094C96.8866 22.0094 96.3244 22.0094 95.7622 22.0094C95.7622 21.822 95.7622 21.6346 95.7622 21.4472C95.7622 19.3857 95.7622 17.5117 95.7622 15.4503C95.7622 15.0755 95.9496 14.8881 96.3244 14.8881C96.6992 14.8881 97.074 14.8881 97.4488 14.8881C97.8236 14.8881 98.011 15.0755 98.011 15.4503C98.011 15.6377 98.011 15.8251 98.011 16.0125C98.1984 15.8251 98.3858 15.4503 98.5732 15.2629C98.948 14.8881 99.5103 14.7007 100.072 14.7007L100.26 15.0755C100.447 15.6377 100.447 16.1999 100.447 16.7621Z" fill="#DE2227"/>
</svg>
