<svg width="36" height="36" viewBox="0 0 36 36" fill="none" xmlns="http://www.w3.org/2000/svg">
<path d="M35.0357 6.42859H30.8572V30.8571C30.8572 31.5391 31.1281 32.1931 31.6103 32.6754C32.0926 33.1576 32.7466 33.4285 33.4286 33.4285C34.1106 33.4285 34.7646 33.1576 35.2469 32.6754C35.7291 32.1931 36 31.5391 36 30.8571V7.39287C36 7.13713 35.8984 6.89186 35.7176 6.71102C35.5368 6.53018 35.2915 6.42859 35.0357 6.42859Z" fill="white"/>
<path d="M32.0745 35.8191C30.9869 35.5208 30.0272 34.8738 29.3428 33.9774C28.6584 33.0811 28.287 31.9849 28.2857 30.8571V0.964284C28.2857 0.70854 28.1841 0.46327 28.0032 0.282432C27.8224 0.101594 27.5771 0 27.3214 0H0.964284C0.70854 0 0.46327 0.101594 0.282432 0.282432C0.101594 0.46327 0 0.70854 0 0.964284V31.4999C0 32.6934 0.474105 33.838 1.31802 34.6819C2.16193 35.5258 3.30652 35.9999 4.49999 35.9999H32.0504C32.0732 36.0008 32.0955 35.9932 32.1129 35.9785C32.1304 35.9638 32.1417 35.9431 32.1447 35.9205C32.1477 35.8979 32.1422 35.875 32.1292 35.8562C32.1162 35.8375 32.0967 35.8243 32.0745 35.8191ZM5.14285 14.1428V6.42856H12.8571V14.1428H5.14285ZM23.1428 29.5714H5.14285V27H23.1428V29.5714ZM23.1428 24.4285H5.14285V21.8571H23.1428V24.4285ZM23.1428 19.2857H5.14285V16.7143H23.1428V19.2857ZM23.1428 14.1428H15.4285V11.5714H23.1428V14.1428ZM23.1428 8.99998H15.4285V6.42856H23.1428V8.99998Z" fill="white"/>
</svg>
