<svg width="15" height="16" viewBox="0 0 15 16" fill="none" xmlns="http://www.w3.org/2000/svg">
<path d="M14.2553 15.9196C13.7719 15.787 13.3454 15.4995 13.0412 15.1011C12.7371 14.7027 12.572 14.2155 12.5714 13.7143V0.428571C12.5714 0.314907 12.5263 0.205898 12.4459 0.125525C12.3655 0.0451528 12.2565 0 12.1428 0H0.428571C0.314907 0 0.205898 0.0451528 0.125525 0.125525C0.0451528 0.205898 0 0.314907 0 0.428571V14C0 14.5304 0.210713 15.0391 0.585785 15.4142C0.960857 15.7893 1.46956 16 2 16H14.2446C14.2547 16.0004 14.2647 15.997 14.2724 15.9904C14.2802 15.9839 14.2852 15.9747 14.2865 15.9647C14.2879 15.9546 14.2854 15.9444 14.2796 15.9361C14.2739 15.9278 14.2652 15.9219 14.2553 15.9196V15.9196ZM2.28571 6.2857V2.85714H5.71427V6.2857H2.28571ZM10.2857 13.1428H2.28571V12H10.2857V13.1428ZM10.2857 10.8571H2.28571V9.71427H10.2857V10.8571ZM10.2857 8.57141H2.28571V7.42856H10.2857V8.57141ZM10.2857 6.2857H6.85713V5.14285H10.2857V6.2857ZM10.2857 3.99999H6.85713V2.85714H10.2857V3.99999Z" fill="white"/>
</svg>
