<svg width="16" height="16" viewBox="0 0 16 16" fill="none" xmlns="http://www.w3.org/2000/svg">
<path d="M8.00965 0H7.99035C3.57768 0 0 3.57768 0 7.99035C0 12.403 3.57768 15.9807 7.99035 15.9807H8.00965C12.4223 15.9807 16 12.403 16 7.99035C16 3.57768 12.4223 0 8.00965 0ZM8.00965 15.3415H7.99035C3.93058 15.3415 0.639228 12.0501 0.639228 7.99035C0.639228 3.93058 3.93058 0.639228 7.99035 0.639228H8.00965C12.0694 0.639228 15.3608 3.93058 15.3608 7.99035C15.3608 12.0501 12.0694 15.3415 8.00965 15.3415Z" fill="#292961"/>
<path d="M10.5567 4.7556C9.89754 4.92206 9.13446 5.02993 8.35008 5.05523L8.33276 5.0559V7.67207H10.9296C10.9145 6.65801 10.783 5.64904 10.5374 4.66504L10.5567 4.7556Z" fill="#292961"/>
<path d="M8.32861 1.32507V4.47127C9.04914 4.44996 9.76538 4.35242 10.4654 4.18029L10.3954 4.19494C9.89206 2.60353 9.10834 1.55946 8.32861 1.32507Z" fill="#292961"/>
<path d="M5.60522 4.19094C6.22181 4.34542 6.93695 4.44664 7.67073 4.47061L7.68738 4.47127V1.31775C6.90765 1.54414 6.11195 2.58955 5.60522 4.19094Z" fill="#292961"/>
<path d="M12.7958 3.28003C11.9262 2.39131 10.8261 1.76271 9.61894 1.46489L9.573 1.45557C10.2152 2.18847 10.6848 3.05607 10.9473 3.9945L10.958 4.04044C11.6134 3.84292 12.247 3.57921 12.849 3.25339L12.7958 3.28003Z" fill="#292961"/>
<path d="M11.5169 7.6721H14.717C14.652 6.22327 14.1159 4.83525 13.1902 3.71887L13.1988 3.73019C12.6062 4.06445 11.9184 4.36143 11.1979 4.58582L11.1213 4.60647C11.3564 5.52203 11.4995 6.57609 11.5162 7.66144V7.67276L11.5169 7.6721Z" fill="#292961"/>
<path d="M5.07056 7.67205H7.69006V5.05588C6.90814 5.03366 6.13095 4.9265 5.37219 4.73627L5.44677 4.75225C5.20855 5.70424 5.08229 6.68079 5.07056 7.66207V7.67205Z" fill="#292961"/>
<path d="M10.9295 8.30933H8.32861V10.9195C9.13031 10.9428 9.89539 11.0507 10.6305 11.2351L10.5573 11.2198C10.7783 10.3509 10.9128 9.35007 10.9295 8.32065V8.30999V8.30933Z" fill="#292961"/>
<path d="M5.44743 11.2251C6.1133 11.0553 6.88303 10.9454 7.67474 10.9221L7.69072 10.9215V8.31128H5.07056C5.08587 9.35269 5.22237 10.3548 5.46608 11.3143L5.44677 11.2251H5.44743Z" fill="#292961"/>
<path d="M7.69133 14.6596V11.5054C6.93891 11.5301 6.2231 11.6306 5.53394 11.8004L5.60518 11.7858C6.11257 13.3878 6.90761 14.4352 7.69133 14.6596Z" fill="#292961"/>
<path d="M9.57313 14.5251C10.7982 14.2293 11.9158 13.5961 12.7992 12.6973L12.8006 12.696C12.2382 12.3915 11.6471 12.1433 11.036 11.9549L10.9641 11.9355C10.7012 12.8958 10.2235 13.7838 9.56714 14.5324L9.5738 14.5251H9.57313Z" fill="#292961"/>
<path d="M6.42303 1.46357C5.2083 1.76095 4.10056 2.39115 3.22423 3.28337L3.2229 3.2847C3.73894 3.56703 4.34022 3.82272 4.96879 4.01848L5.04004 4.03779C5.30288 3.08392 5.77768 2.20169 6.42903 1.45691L6.42237 1.46423L6.42303 1.46357Z" fill="#292961"/>
<path d="M11.1212 11.3749C11.9196 11.618 12.6094 11.9156 13.2573 12.2785L13.2034 12.2506C14.1218 11.1411 14.6543 9.76279 14.7202 8.32397L14.7209 8.30865H11.5207C11.5014 9.37548 11.3604 10.4366 11.1006 11.4715L11.1212 11.3749Z" fill="#292961"/>
<path d="M8.32861 11.5054V14.655C9.10834 14.4206 9.89206 13.3765 10.3954 11.7818C9.72324 11.6177 9.03559 11.5251 8.34393 11.5054L8.32861 11.5048V11.5054Z" fill="#292961"/>
<path d="M4.88276 4.60179C4.14656 4.38039 3.43692 4.07871 2.76665 3.70221L2.81926 3.72951C1.90079 4.839 1.36837 6.21728 1.30242 7.6561L1.30176 7.67141H4.48591C4.50123 6.57474 4.64505 5.51868 4.90274 4.5079L4.88276 4.60112V4.60179Z" fill="#292961"/>
<path d="M4.48249 8.30933H1.29834C1.36959 9.81817 1.93091 11.1832 2.82516 12.2625L2.81651 12.2512C3.40446 11.919 4.0883 11.6233 4.80344 11.3996L4.87935 11.379C4.63132 10.3784 4.4984 9.35273 4.48316 8.32198V8.30933H4.48249Z" fill="#292961"/>
<path d="M3.21933 12.696C4.0844 13.5797 5.17729 14.2066 6.37685 14.5071L6.42279 14.5171C5.78253 13.7858 5.31327 12.9209 5.04912 11.9855L5.0378 11.9389C4.38893 12.1381 3.7613 12.4008 3.16406 12.7233L3.21933 12.696Z" fill="#292961"/>
</svg>
