<svg width="10" height="18" viewBox="0 0 10 18" fill="none" xmlns="http://www.w3.org/2000/svg">
<path d="M0.937105 0.00197221C0.694079 0.0172534 0.464979 0.120685 0.292787 0.292861C0.105316 0.480389 0 0.734697 0 0.999861C0 1.26503 0.105316 1.51933 0.292787 1.70686L7.58579 8.99986L0.292787 16.2929L0.209786 16.3869C0.0543746 16.5879 -0.0187063 16.8405 0.00538731 17.0934C0.0294809 17.3463 0.148942 17.5806 0.339508 17.7486C0.530073 17.9166 0.777453 18.0058 1.0314 17.9981C1.28535 17.9903 1.52683 17.8862 1.70679 17.7069L9.70679 9.70686L9.78979 9.61286C9.93904 9.42046 10.013 9.18021 9.99767 8.93718C9.98239 8.69415 9.87896 8.46505 9.70679 8.29286L1.70679 0.292861L1.61279 0.209861C1.42038 0.06061 1.18013 -0.013309 0.937105 0.00197221Z" fill="#CDD0D3"/>
</svg>
