<svg width="30" height="36" viewBox="0 0 30 36" fill="none" xmlns="http://www.w3.org/2000/svg">
<path d="M14.9098 9.57938H19.4368C19.6918 9.57938 19.9004 9.3708 19.9004 9.11586C19.9004 8.86093 19.6918 8.65234 19.4368 8.65234H14.9098C14.6549 8.65234 14.4463 8.86093 14.4463 9.11586C14.4463 9.3708 14.6549 9.57938 14.9098 9.57938Z" fill="white"/>
<path d="M23.2995 11.7426H14.9098C14.6549 11.7426 14.4463 11.9511 14.4463 12.2061C14.4463 12.461 14.6549 12.6696 14.9098 12.6696H23.2995C23.5544 12.6696 23.763 12.461 23.763 12.2061C23.763 11.9511 23.5622 11.7426 23.2995 11.7426Z" fill="white"/>
<path d="M6.41199 18.8653V19.4524V19.4987C6.41199 20.0936 6.89868 20.5803 7.49353 20.5803C8.08838 20.5803 8.57508 20.0936 8.57508 19.4987V18.8575C8.22744 18.9502 7.87207 19.0043 7.50898 18.9966H7.48581C7.12272 19.012 6.75963 18.9657 6.41199 18.8653Z" fill="white"/>
<path d="M10.321 19.9313H9.42485C9.23172 20.7811 8.43601 21.4996 7.4858 21.4996C6.53558 21.4996 5.73215 20.7811 5.53902 19.9313H4.66605C3.51498 19.9313 2.54932 20.8584 2.54932 22.0172V23.9485H12.4377V22.0172C12.4377 20.8584 11.4721 19.9313 10.321 19.9313Z" fill="white"/>
<path d="M8.44374 11.6343C8.53645 11.4644 8.72185 11.3717 8.91499 11.3949C9.20855 11.4335 9.48666 11.5339 9.7416 11.6807C9.70297 11.6343 9.67207 11.588 9.65662 11.5339L9.64117 11.4876C9.40168 10.9082 8.96906 10.4292 8.40511 10.1356C7.81026 9.84207 7.13044 9.78026 6.49696 9.98112C5.36134 10.3056 4.42657 11.0627 3.93988 12.0515C3.64632 12.6386 3.50726 13.2953 3.53816 13.9519C3.56134 14.6009 3.70812 15.2343 3.97078 15.8292C3.96305 15.7288 3.93988 15.6283 3.93988 15.5279V14.9949C3.9476 14.7013 4.17936 14.4695 4.47293 14.4541C4.67378 14.4155 7.08408 14.1219 8.44374 11.6343Z" fill="white"/>
<path d="M7.48583 18.1005C8.89956 18.0927 10.0429 16.9108 10.0429 15.4739V14.2224L10.0584 13.9211C10.0815 13.3726 9.81888 12.855 9.36308 12.5382C9.27038 12.4764 9.16995 12.4301 9.06179 12.3837C8.13476 13.9056 6.61287 14.9717 4.86694 15.3039V15.5048C4.86694 16.2 5.14505 16.8567 5.63948 17.3434C6.1339 17.8301 6.79827 18.1082 7.48583 18.1005Z" fill="white"/>
<path d="M27.8189 3.7854H26.4978V30.6077C26.4978 31.9828 25.3854 33.1416 24.0103 33.1416H3.70813V34.424C3.70813 35.2893 4.44204 36 5.30727 36H27.8189C28.6841 36 29.3562 35.2893 29.3562 34.424V5.35364C29.3562 4.4884 28.6841 3.7854 27.8189 3.7854Z" fill="white"/>
<path d="M25.6481 30.5691V1.56824C25.6481 0.703004 24.9451 0 24.0798 0H1.56824C0.703004 0 0 0.703004 0 1.56824V30.5691C0 31.4343 0.703004 32.1373 1.56824 32.1373H24.0798C24.9451 32.1373 25.6481 31.4343 25.6481 30.5691ZM13.3648 24.4352C13.3648 24.6901 13.133 24.8755 12.8781 24.8755H2.10901C1.85408 24.8755 1.62232 24.6979 1.62232 24.4352V22.0172C1.62232 20.3485 2.99743 19.0043 4.66609 19.0043H5.48498V18.8807C3.78541 17.8996 2.69614 16.0146 2.61116 13.9828C2.58026 13.1717 2.75021 12.3605 3.1133 11.6343C3.72361 10.4137 4.85923 9.48669 6.24206 9.08498C7.87983 8.58283 9.6412 9.34764 10.3906 10.8927C11.0858 10.9082 11.7116 11.4103 12.0592 12.2601C12.515 13.3803 12.4918 14.6472 11.9974 15.8215C11.6498 16.6558 11.0858 17.4747 10.3056 18.2472C10.0197 18.533 9.73391 18.7725 9.50215 18.9811V19.0043H10.321C11.9897 19.0043 13.3648 20.3485 13.3648 22.0172V24.4352V24.4352ZM23.2996 25.03H14.9099C14.6549 25.03 14.4464 24.8215 14.4464 24.5665C14.4464 24.3116 14.6549 24.103 14.9099 24.103H23.2996C23.5545 24.103 23.7631 24.3116 23.7631 24.5665C23.7631 24.8215 23.5622 25.03 23.2996 25.03ZM23.2996 21.9399H14.9099C14.6549 21.9399 14.4464 21.7313 14.4464 21.4764C14.4464 21.2215 14.6549 21.0129 14.9099 21.0129H23.2996C23.5545 21.0129 23.7631 21.2215 23.7631 21.4764C23.7631 21.7313 23.5622 21.9399 23.2996 21.9399ZM23.2996 18.8498H14.9099C14.6549 18.8498 14.4464 18.6412 14.4464 18.3863C14.4464 18.1313 14.6549 17.9227 14.9099 17.9227H23.2996C23.5545 17.9227 23.7631 18.1313 23.7631 18.3863C23.7631 18.6412 23.5622 18.8498 23.2996 18.8498ZM23.2996 15.7597H14.9099C14.6549 15.7597 14.4464 15.5511 14.4464 15.2961C14.4464 15.0412 14.6549 14.8326 14.9099 14.8326H23.2996C23.5545 14.8326 23.7631 15.0412 23.7631 15.2961C23.7631 15.5511 23.5622 15.7597 23.2996 15.7597Z" fill="white"/>
<path d="M10.9932 13.9288L10.97 14.2223V15.4661C10.97 15.5665 10.9777 15.667 10.97 15.7597C11.0241 15.6592 11.0859 15.5511 11.1322 15.4507C11.5339 14.5004 11.5494 13.4884 11.194 12.5923C11.1322 12.4378 10.7923 11.6884 10.2052 11.8275C10.1279 11.8429 10.043 11.8429 9.9657 11.8198C10.6301 12.3219 11.0086 13.1022 10.9932 13.9288Z" fill="white"/>
</svg>
