<svg width="16" height="16" viewBox="0 0 16 16" fill="none" xmlns="http://www.w3.org/2000/svg">
<path d="M2.66667 16H14.2222C14.6937 16 15.1459 15.8314 15.4793 15.5314C15.8127 15.2313 16 14.8243 16 14.4V1.6C16 1.17565 15.8127 0.768687 15.4793 0.468629C15.1459 0.168571 14.6937 0 14.2222 0H1.77778C1.30628 0 0.854097 0.168571 0.520699 0.468629C0.187301 0.768687 0 1.17565 0 1.6V14.4C0 14.8243 0.187301 15.2313 0.520699 15.5314C0.854097 15.8314 1.30628 16 1.77778 16H2.66667ZM8 2.3992C9.464 2.3992 10.6667 3.48 10.6667 4.7992C10.6667 6.1176 9.464 7.2 8 7.2C6.536 7.2 5.33333 6.1176 5.33333 4.7992C5.33333 3.48 6.536 2.3992 8 2.3992ZM2.66667 12.2C2.66667 10.4248 5.07111 8.6 8 8.6C10.9289 8.6 13.3333 10.4248 13.3333 12.2V12.8H2.66667V12.2Z" fill="#292961"/>
</svg>
