<svg width="16" height="16" viewBox="0 0 16 16" fill="none" xmlns="http://www.w3.org/2000/svg">
<rect width="16" height="16" rx="2" fill="#292961"/>
<path d="M7.62242 10.0991L5.88666 8.3633C6.1968 7.81727 6.64916 7.27638 7.24317 6.74234C8.0091 6.05237 9.36104 4.88606 11.2984 3.24339C11.4947 3.0769 11.7464 2.99032 12.0036 3.00086C12.2608 3.0114 12.5046 3.11829 12.6866 3.30029C12.8686 3.48229 12.9755 3.72608 12.986 3.98326C12.9965 4.24043 12.91 4.49215 12.7435 4.68844C11.0985 6.62925 9.93278 7.98119 9.2451 8.74369C8.71106 9.33599 8.17017 9.78778 7.62242 10.0991V10.0991ZM5.10017 9.1932L6.79366 10.8861L6.01346 11.9748L3 13L4.01153 9.97284L5.10017 9.1932V9.1932Z" fill="white"/>
</svg>
